<svg width="1024" height="1024" viewBox="0 0 1024 1024" xmlns="http://www.w3.org/2000/svg">
  <defs>
    <linearGradient id="dusk" x1="0" y1="0" x2="0.35" y2="1">
      <stop offset="0" stop-color="#1B2E6B"/>
      <stop offset="0.55" stop-color="#14508A"/>
      <stop offset="1" stop-color="#0E8A8F"/>
    </linearGradient>
    <linearGradient id="photoShade" x1="0" y1="0" x2="0" y2="1">
      <stop offset="0" stop-color="#FFFFFF" stop-opacity="0.16"/>
      <stop offset="1" stop-color="#000000" stop-opacity="0.10"/>
    </linearGradient>
    <radialGradient id="glow" cx="0.62" cy="0.18" r="0.9">
      <stop offset="0" stop-color="#FFFFFF" stop-opacity="0.14"/>
      <stop offset="0.5" stop-color="#FFFFFF" stop-opacity="0.0"/>
    </radialGradient>
    <filter id="iconShadow" x="-20%" y="-20%" width="140%" height="140%">
      <feDropShadow dx="0" dy="12" stdDeviation="18" flood-color="#000000" flood-opacity="0.30"/>
    </filter>
    <filter id="printShadow" x="-30%" y="-30%" width="160%" height="160%">
      <feDropShadow dx="0" dy="5" stdDeviation="6" flood-color="#07203A" flood-opacity="0.35"/>
    </filter>
    <clipPath id="squircle">
      <rect x="100.0" y="100.0" width="824" height="824" rx="186"/>
    </clipPath>
  </defs>

  <rect x="100.0" y="100.0" width="824" height="824" rx="186"
        fill="url(#dusk)" filter="url(#iconShadow)"/>
  <g clip-path="url(#squircle)">
    <rect x="100.0" y="100.0" width="824" height="824" fill="url(#glow)"/>
    <circle cx="164.0" cy="164.0" r="2.6" fill="#FFFFFF" opacity="0.07"/><circle cx="228.0" cy="164.0" r="2.6" fill="#FFFFFF" opacity="0.07"/><circle cx="292.0" cy="164.0" r="2.6" fill="#FFFFFF" opacity="0.07"/><circle cx="356.0" cy="164.0" r="2.6" fill="#FFFFFF" opacity="0.07"/><circle cx="420.0" cy="164.0" r="2.6" fill="#FFFFFF" opacity="0.07"/><circle cx="484.0" cy="164.0" r="2.6" fill="#FFFFFF" opacity="0.07"/><circle cx="548.0" cy="164.0" r="2.6" fill="#FFFFFF" opacity="0.07"/><circle cx="612.0" cy="164.0" r="2.6" fill="#FFFFFF" opacity="0.07"/><circle cx="676.0" cy="164.0" r="2.6" fill="#FFFFFF" opacity="0.07"/><circle cx="740.0" cy="164.0" r="2.6" fill="#FFFFFF" opacity="0.07"/><circle cx="804.0" cy="164.0" r="2.6" fill="#FFFFFF" opacity="0.07"/><circle cx="868.0" cy="164.0" r="2.6" fill="#FFFFFF" opacity="0.07"/><circle cx="164.0" cy="228.0" r="2.6" fill="#FFFFFF" opacity="0.07"/><circle cx="228.0" cy="228.0" r="2.6" fill="#FFFFFF" opacity="0.07"/><circle cx="292.0" cy="228.0" r="2.6" fill="#FFFFFF" opacity="0.07"/><circle cx="356.0" cy="228.0" r="2.6" fill="#FFFFFF" opacity="0.07"/><circle cx="420.0" cy="228.0" r="2.6" fill="#FFFFFF" opacity="0.07"/><circle cx="484.0" cy="228.0" r="2.6" fill="#FFFFFF" opacity="0.07"/><circle cx="548.0" cy="228.0" r="2.6" fill="#FFFFFF" opacity="0.07"/><circle cx="612.0" cy="228.0" r="2.6" fill="#FFFFFF" opacity="0.07"/><circle cx="676.0" cy="228.0" r="2.6" fill="#FFFFFF" opacity="0.07"/><circle cx="740.0" cy="228.0" r="2.6" fill="#FFFFFF" opacity="0.07"/><circle cx="804.0" cy="228.0" r="2.6" fill="#FFFFFF" opacity="0.07"/><circle cx="868.0" cy="228.0" r="2.6" fill="#FFFFFF" opacity="0.07"/><circle cx="164.0" cy="292.0" r="2.6" fill="#FFFFFF" opacity="0.07"/><circle cx="228.0" cy="292.0" r="2.6" fill="#FFFFFF" opacity="0.07"/><circle cx="292.0" cy="292.0" r="2.6" fill="#FFFFFF" opacity="0.07"/><circle cx="356.0" cy="292.0" r="2.6" fill="#FFFFFF" opacity="0.07"/><circle cx="420.0" cy="292.0" r="2.6" fill="#FFFFFF" opacity="0.07"/><circle cx="484.0" cy="292.0" r="2.6" fill="#FFFFFF" opacity="0.07"/><circle cx="548.0" cy="292.0" r="2.6" fill="#FFFFFF" opacity="0.07"/><circle cx="612.0" cy="292.0" r="2.6" fill="#FFFFFF" opacity="0.07"/><circle cx="676.0" cy="292.0" r="2.6" fill="#FFFFFF" opacity="0.07"/><circle cx="740.0" cy="292.0" r="2.6" fill="#FFFFFF" opacity="0.07"/><circle cx="804.0" cy="292.0" r="2.6" fill="#FFFFFF" opacity="0.07"/><circle cx="868.0" cy="292.0" r="2.6" fill="#FFFFFF" opacity="0.07"/><circle cx="164.0" cy="356.0" r="2.6" fill="#FFFFFF" opacity="0.07"/><circle cx="228.0" cy="356.0" r="2.6" fill="#FFFFFF" opacity="0.07"/><circle cx="292.0" cy="356.0" r="2.6" fill="#FFFFFF" opacity="0.07"/><circle cx="356.0" cy="356.0" r="2.6" fill="#FFFFFF" opacity="0.07"/><circle cx="420.0" cy="356.0" r="2.6" fill="#FFFFFF" opacity="0.07"/><circle cx="484.0" cy="356.0" r="2.6" fill="#FFFFFF" opacity="0.07"/><circle cx="548.0" cy="356.0" r="2.6" fill="#FFFFFF" opacity="0.07"/><circle cx="612.0" cy="356.0" r="2.6" fill="#FFFFFF" opacity="0.07"/><circle cx="676.0" cy="356.0" r="2.6" fill="#FFFFFF" opacity="0.07"/><circle cx="740.0" cy="356.0" r="2.6" fill="#FFFFFF" opacity="0.07"/><circle cx="804.0" cy="356.0" r="2.6" fill="#FFFFFF" opacity="0.07"/><circle cx="868.0" cy="356.0" r="2.6" fill="#FFFFFF" opacity="0.07"/><circle cx="164.0" cy="420.0" r="2.6" fill="#FFFFFF" opacity="0.07"/><circle cx="228.0" cy="420.0" r="2.6" fill="#FFFFFF" opacity="0.07"/><circle cx="292.0" cy="420.0" r="2.6" fill="#FFFFFF" opacity="0.07"/><circle cx="356.0" cy="420.0" r="2.6" fill="#FFFFFF" opacity="0.07"/><circle cx="420.0" cy="420.0" r="2.6" fill="#FFFFFF" opacity="0.07"/><circle cx="484.0" cy="420.0" r="2.6" fill="#FFFFFF" opacity="0.07"/><circle cx="548.0" cy="420.0" r="2.6" fill="#FFFFFF" opacity="0.07"/><circle cx="612.0" cy="420.0" r="2.6" fill="#FFFFFF" opacity="0.07"/><circle cx="676.0" cy="420.0" r="2.6" fill="#FFFFFF" opacity="0.07"/><circle cx="740.0" cy="420.0" r="2.6" fill="#FFFFFF" opacity="0.07"/><circle cx="804.0" cy="420.0" r="2.6" fill="#FFFFFF" opacity="0.07"/><circle cx="868.0" cy="420.0" r="2.6" fill="#FFFFFF" opacity="0.07"/><circle cx="164.0" cy="484.0" r="2.6" fill="#FFFFFF" opacity="0.07"/><circle cx="228.0" cy="484.0" r="2.6" fill="#FFFFFF" opacity="0.07"/><circle cx="292.0" cy="484.0" r="2.6" fill="#FFFFFF" opacity="0.07"/><circle cx="356.0" cy="484.0" r="2.6" fill="#FFFFFF" opacity="0.07"/><circle cx="420.0" cy="484.0" r="2.6" fill="#FFFFFF" opacity="0.07"/><circle cx="484.0" cy="484.0" r="2.6" fill="#FFFFFF" opacity="0.07"/><circle cx="548.0" cy="484.0" r="2.6" fill="#FFFFFF" opacity="0.07"/><circle cx="612.0" cy="484.0" r="2.6" fill="#FFFFFF" opacity="0.07"/><circle cx="676.0" cy="484.0" r="2.6" fill="#FFFFFF" opacity="0.07"/><circle cx="740.0" cy="484.0" r="2.6" fill="#FFFFFF" opacity="0.07"/><circle cx="804.0" cy="484.0" r="2.6" fill="#FFFFFF" opacity="0.07"/><circle cx="868.0" cy="484.0" r="2.6" fill="#FFFFFF" opacity="0.07"/><circle cx="164.0" cy="548.0" r="2.6" fill="#FFFFFF" opacity="0.07"/><circle cx="228.0" cy="548.0" r="2.6" fill="#FFFFFF" opacity="0.07"/><circle cx="292.0" cy="548.0" r="2.6" fill="#FFFFFF" opacity="0.07"/><circle cx="356.0" cy="548.0" r="2.6" fill="#FFFFFF" opacity="0.07"/><circle cx="420.0" cy="548.0" r="2.6" fill="#FFFFFF" opacity="0.07"/><circle cx="484.0" cy="548.0" r="2.6" fill="#FFFFFF" opacity="0.07"/><circle cx="548.0" cy="548.0" r="2.6" fill="#FFFFFF" opacity="0.07"/><circle cx="612.0" cy="548.0" r="2.6" fill="#FFFFFF" opacity="0.07"/><circle cx="676.0" cy="548.0" r="2.6" fill="#FFFFFF" opacity="0.07"/><circle cx="740.0" cy="548.0" r="2.6" fill="#FFFFFF" opacity="0.07"/><circle cx="804.0" cy="548.0" r="2.6" fill="#FFFFFF" opacity="0.07"/><circle cx="868.0" cy="548.0" r="2.6" fill="#FFFFFF" opacity="0.07"/><circle cx="164.0" cy="612.0" r="2.6" fill="#FFFFFF" opacity="0.07"/><circle cx="228.0" cy="612.0" r="2.6" fill="#FFFFFF" opacity="0.07"/><circle cx="292.0" cy="612.0" r="2.6" fill="#FFFFFF" opacity="0.07"/><circle cx="356.0" cy="612.0" r="2.6" fill="#FFFFFF" opacity="0.07"/><circle cx="420.0" cy="612.0" r="2.6" fill="#FFFFFF" opacity="0.07"/><circle cx="484.0" cy="612.0" r="2.6" fill="#FFFFFF" opacity="0.07"/><circle cx="548.0" cy="612.0" r="2.6" fill="#FFFFFF" opacity="0.07"/><circle cx="612.0" cy="612.0" r="2.6" fill="#FFFFFF" opacity="0.07"/><circle cx="676.0" cy="612.0" r="2.6" fill="#FFFFFF" opacity="0.07"/><circle cx="740.0" cy="612.0" r="2.6" fill="#FFFFFF" opacity="0.07"/><circle cx="804.0" cy="612.0" r="2.6" fill="#FFFFFF" opacity="0.07"/><circle cx="868.0" cy="612.0" r="2.6" fill="#FFFFFF" opacity="0.07"/><circle cx="164.0" cy="676.0" r="2.6" fill="#FFFFFF" opacity="0.07"/><circle cx="228.0" cy="676.0" r="2.6" fill="#FFFFFF" opacity="0.07"/><circle cx="292.0" cy="676.0" r="2.6" fill="#FFFFFF" opacity="0.07"/><circle cx="356.0" cy="676.0" r="2.6" fill="#FFFFFF" opacity="0.07"/><circle cx="420.0" cy="676.0" r="2.6" fill="#FFFFFF" opacity="0.07"/><circle cx="484.0" cy="676.0" r="2.6" fill="#FFFFFF" opacity="0.07"/><circle cx="548.0" cy="676.0" r="2.6" fill="#FFFFFF" opacity="0.07"/><circle cx="612.0" cy="676.0" r="2.6" fill="#FFFFFF" opacity="0.07"/><circle cx="676.0" cy="676.0" r="2.6" fill="#FFFFFF" opacity="0.07"/><circle cx="740.0" cy="676.0" r="2.6" fill="#FFFFFF" opacity="0.07"/><circle cx="804.0" cy="676.0" r="2.6" fill="#FFFFFF" opacity="0.07"/><circle cx="868.0" cy="676.0" r="2.6" fill="#FFFFFF" opacity="0.07"/><circle cx="164.0" cy="740.0" r="2.6" fill="#FFFFFF" opacity="0.07"/><circle cx="228.0" cy="740.0" r="2.6" fill="#FFFFFF" opacity="0.07"/><circle cx="292.0" cy="740.0" r="2.6" fill="#FFFFFF" opacity="0.07"/><circle cx="356.0" cy="740.0" r="2.6" fill="#FFFFFF" opacity="0.07"/><circle cx="420.0" cy="740.0" r="2.6" fill="#FFFFFF" opacity="0.07"/><circle cx="484.0" cy="740.0" r="2.6" fill="#FFFFFF" opacity="0.07"/><circle cx="548.0" cy="740.0" r="2.6" fill="#FFFFFF" opacity="0.07"/><circle cx="612.0" cy="740.0" r="2.6" fill="#FFFFFF" opacity="0.07"/><circle cx="676.0" cy="740.0" r="2.6" fill="#FFFFFF" opacity="0.07"/><circle cx="740.0" cy="740.0" r="2.6" fill="#FFFFFF" opacity="0.07"/><circle cx="804.0" cy="740.0" r="2.6" fill="#FFFFFF" opacity="0.07"/><circle cx="868.0" cy="740.0" r="2.6" fill="#FFFFFF" opacity="0.07"/><circle cx="164.0" cy="804.0" r="2.6" fill="#FFFFFF" opacity="0.07"/><circle cx="228.0" cy="804.0" r="2.6" fill="#FFFFFF" opacity="0.07"/><circle cx="292.0" cy="804.0" r="2.6" fill="#FFFFFF" opacity="0.07"/><circle cx="356.0" cy="804.0" r="2.6" fill="#FFFFFF" opacity="0.07"/><circle cx="420.0" cy="804.0" r="2.6" fill="#FFFFFF" opacity="0.07"/><circle cx="484.0" cy="804.0" r="2.6" fill="#FFFFFF" opacity="0.07"/><circle cx="548.0" cy="804.0" r="2.6" fill="#FFFFFF" opacity="0.07"/><circle cx="612.0" cy="804.0" r="2.6" fill="#FFFFFF" opacity="0.07"/><circle cx="676.0" cy="804.0" r="2.6" fill="#FFFFFF" opacity="0.07"/><circle cx="740.0" cy="804.0" r="2.6" fill="#FFFFFF" opacity="0.07"/><circle cx="804.0" cy="804.0" r="2.6" fill="#FFFFFF" opacity="0.07"/><circle cx="868.0" cy="804.0" r="2.6" fill="#FFFFFF" opacity="0.07"/><circle cx="164.0" cy="868.0" r="2.6" fill="#FFFFFF" opacity="0.07"/><circle cx="228.0" cy="868.0" r="2.6" fill="#FFFFFF" opacity="0.07"/><circle cx="292.0" cy="868.0" r="2.6" fill="#FFFFFF" opacity="0.07"/><circle cx="356.0" cy="868.0" r="2.6" fill="#FFFFFF" opacity="0.07"/><circle cx="420.0" cy="868.0" r="2.6" fill="#FFFFFF" opacity="0.07"/><circle cx="484.0" cy="868.0" r="2.6" fill="#FFFFFF" opacity="0.07"/><circle cx="548.0" cy="868.0" r="2.6" fill="#FFFFFF" opacity="0.07"/><circle cx="612.0" cy="868.0" r="2.6" fill="#FFFFFF" opacity="0.07"/><circle cx="676.0" cy="868.0" r="2.6" fill="#FFFFFF" opacity="0.07"/><circle cx="740.0" cy="868.0" r="2.6" fill="#FFFFFF" opacity="0.07"/><circle cx="804.0" cy="868.0" r="2.6" fill="#FFFFFF" opacity="0.07"/><circle cx="868.0" cy="868.0" r="2.6" fill="#FFFFFF" opacity="0.07"/>
    <line x1="190.0" y1="808.0" x2="834.0" y2="808.0"
          stroke="#FFFFFF" stroke-opacity="0.28" stroke-width="5" stroke-linecap="round"/>
    
    <g transform="rotate(-1.77 278.0 792.0)">
      <rect x="214.0" y="690.0" width="128" height="102" rx="7"
            fill="#FFFFFF" filter="url(#printShadow)"/>
      <rect x="224.0" y="700.0" width="108" height="82" fill="#E9F0F4"/>
    </g>
    <g transform="rotate(-0.57 278.0 762.0)">
      <rect x="214.0" y="660.0" width="128" height="102" rx="7"
            fill="#FFFFFF" filter="url(#printShadow)"/>
      <rect x="224.0" y="670.0" width="108" height="82" fill="#E9F0F4"/>
    </g>
    <g transform="rotate(-1.14 278.0 732.0)">
      <rect x="214.0" y="630.0" width="128" height="102" rx="7"
            fill="#FFFFFF" filter="url(#printShadow)"/>
      <rect x="224.0" y="640.0" width="108" height="82" fill="#E9F0F4"/>
    </g>
    <g transform="rotate(1.19 278.0 702.0)">
      <rect x="214.0" y="600.0" width="128" height="102" rx="7"
            fill="#FFFFFF" filter="url(#printShadow)"/>
      <rect x="224.0" y="610.0" width="108" height="82" fill="#E9F0F4"/>
    </g>
    <g transform="rotate(0.84 278.0 672.0)">
      <rect x="214.0" y="570.0" width="128" height="102" rx="7"
            fill="#FFFFFF" filter="url(#printShadow)"/>
      <rect x="224.0" y="580.0" width="108" height="82" fill="#E9F0F4"/>
    </g>
    <g transform="rotate(-0.12 278.0 642.0)">
      <rect x="214.0" y="540.0" width="128" height="102" rx="7"
            fill="#FFFFFF" filter="url(#printShadow)"/>
      <rect x="224.0" y="550.0" width="108" height="82" fill="#E9F0F4"/>
    </g>
    <g transform="rotate(2.45 278.0 612.0)">
      <rect x="214.0" y="510.0" width="128" height="102" rx="7"
            fill="#FFFFFF" filter="url(#printShadow)"/>
      
      <rect x="224.0" y="520.0" width="108" height="82" fill="#7EC8E3"/>
      <rect x="224.0" y="520.0" width="108" height="82" fill="url(#photoShade)"/>
      <circle cx="256.4" cy="544.6" r="11.48" fill="#FFFFFF" opacity="0.92"/>
      <path d="M 224.0 602.0 L 260.72 557.72 L 284.48 580.68 L 303.92 562.64 L 332.0 602.0 Z" fill="#0E3554" opacity="0.35"/>
    
    </g>
    <g transform="rotate(-0.82 434.0 792.0)">
      <rect x="370.0" y="690.0" width="128" height="102" rx="7"
            fill="#FFFFFF" filter="url(#printShadow)"/>
      <rect x="380.0" y="700.0" width="108" height="82" fill="#E9F0F4"/>
    </g>
    <g transform="rotate(-0.50 434.0 762.0)">
      <rect x="370.0" y="660.0" width="128" height="102" rx="7"
            fill="#FFFFFF" filter="url(#printShadow)"/>
      <rect x="380.0" y="670.0" width="108" height="82" fill="#E9F0F4"/>
    </g>
    <g transform="rotate(-2.09 434.0 732.0)">
      <rect x="370.0" y="630.0" width="128" height="102" rx="7"
            fill="#FFFFFF" filter="url(#printShadow)"/>
      <rect x="380.0" y="640.0" width="108" height="82" fill="#E9F0F4"/>
    </g>
    <g transform="rotate(-0.02 434.0 702.0)">
      <rect x="370.0" y="600.0" width="128" height="102" rx="7"
            fill="#FFFFFF" filter="url(#printShadow)"/>
      
      <rect x="380.0" y="610.0" width="108" height="82" fill="#9FE2BF"/>
      <rect x="380.0" y="610.0" width="108" height="82" fill="url(#photoShade)"/>
      <circle cx="412.4" cy="634.6" r="11.48" fill="#FFFFFF" opacity="0.92"/>
      <path d="M 380.0 692.0 L 416.72 647.72 L 440.48 670.68 L 459.92 652.64 L 488.0 692.0 Z" fill="#0E3554" opacity="0.35"/>
    
    </g>
    <g transform="rotate(1.72 590.0 792.0)">
      <rect x="526.0" y="690.0" width="128" height="102" rx="7"
            fill="#FFFFFF" filter="url(#printShadow)"/>
      <rect x="536.0" y="700.0" width="108" height="82" fill="#E9F0F4"/>
    </g>
    <g transform="rotate(-0.91 590.0 762.0)">
      <rect x="526.0" y="660.0" width="128" height="102" rx="7"
            fill="#FFFFFF" filter="url(#printShadow)"/>
      <rect x="536.0" y="670.0" width="108" height="82" fill="#E9F0F4"/>
    </g>
    <g transform="rotate(2.14 590.0 732.0)">
      <rect x="526.0" y="630.0" width="128" height="102" rx="7"
            fill="#FFFFFF" filter="url(#printShadow)"/>
      <rect x="536.0" y="640.0" width="108" height="82" fill="#E9F0F4"/>
    </g>
    <g transform="rotate(-0.30 590.0 702.0)">
      <rect x="526.0" y="600.0" width="128" height="102" rx="7"
            fill="#FFFFFF" filter="url(#printShadow)"/>
      <rect x="536.0" y="610.0" width="108" height="82" fill="#E9F0F4"/>
    </g>
    <g transform="rotate(1.54 590.0 672.0)">
      <rect x="526.0" y="570.0" width="128" height="102" rx="7"
            fill="#FFFFFF" filter="url(#printShadow)"/>
      <rect x="536.0" y="580.0" width="108" height="82" fill="#E9F0F4"/>
    </g>
    <g transform="rotate(0.46 590.0 642.0)">
      <rect x="526.0" y="540.0" width="128" height="102" rx="7"
            fill="#FFFFFF" filter="url(#printShadow)"/>
      <rect x="536.0" y="550.0" width="108" height="82" fill="#E9F0F4"/>
    </g>
    <g transform="rotate(2.37 590.0 612.0)">
      <rect x="526.0" y="510.0" width="128" height="102" rx="7"
            fill="#FFFFFF" filter="url(#printShadow)"/>
      <rect x="536.0" y="520.0" width="108" height="82" fill="#E9F0F4"/>
    </g>
    <g transform="rotate(-0.53 590.0 582.0)">
      <rect x="526.0" y="480.0" width="128" height="102" rx="7"
            fill="#FFFFFF" filter="url(#printShadow)"/>
      <rect x="536.0" y="490.0" width="108" height="82" fill="#E9F0F4"/>
    </g>
    <g transform="rotate(-0.82 590.0 552.0)">
      <rect x="526.0" y="450.0" width="128" height="102" rx="7"
            fill="#FFFFFF" filter="url(#printShadow)"/>
      <rect x="536.0" y="460.0" width="108" height="82" fill="#E9F0F4"/>
    </g>
    <g transform="rotate(2.21 590.0 522.0)">
      <rect x="526.0" y="420.0" width="128" height="102" rx="7"
            fill="#FFFFFF" filter="url(#printShadow)"/>
      <rect x="536.0" y="430.0" width="108" height="82" fill="#E9F0F4"/>
    </g>
    <g transform="rotate(-0.61 590.0 492.0)">
      <rect x="526.0" y="390.0" width="128" height="102" rx="7"
            fill="#FFFFFF" filter="url(#printShadow)"/>
      
      <rect x="536.0" y="400.0" width="108" height="82" fill="#FF7F6B"/>
      <rect x="536.0" y="400.0" width="108" height="82" fill="url(#photoShade)"/>
      <circle cx="568.4" cy="424.6" r="11.48" fill="#FFFFFF" opacity="0.92"/>
      <path d="M 536.0 482.0 L 572.72 437.72 L 596.48 460.68 L 615.92 442.64 L 644.0 482.0 Z" fill="#0E3554" opacity="0.35"/>
    
    </g>
    <g transform="rotate(-0.06 746.0 792.0)">
      <rect x="682.0" y="690.0" width="128" height="102" rx="7"
            fill="#FFFFFF" filter="url(#printShadow)"/>
      <rect x="692.0" y="700.0" width="108" height="82" fill="#E9F0F4"/>
    </g>
    <g transform="rotate(0.25 746.0 762.0)">
      <rect x="682.0" y="660.0" width="128" height="102" rx="7"
            fill="#FFFFFF" filter="url(#printShadow)"/>
      <rect x="692.0" y="670.0" width="108" height="82" fill="#E9F0F4"/>
    </g>
    <g transform="rotate(0.60 746.0 732.0)">
      <rect x="682.0" y="630.0" width="128" height="102" rx="7"
            fill="#FFFFFF" filter="url(#printShadow)"/>
      <rect x="692.0" y="640.0" width="108" height="82" fill="#E9F0F4"/>
    </g>
    <g transform="rotate(1.85 746.0 702.0)">
      <rect x="682.0" y="600.0" width="128" height="102" rx="7"
            fill="#FFFFFF" filter="url(#printShadow)"/>
      <rect x="692.0" y="610.0" width="108" height="82" fill="#E9F0F4"/>
    </g>
    <g transform="rotate(-1.78 746.0 672.0)">
      <rect x="682.0" y="570.0" width="128" height="102" rx="7"
            fill="#FFFFFF" filter="url(#printShadow)"/>
      <rect x="692.0" y="580.0" width="108" height="82" fill="#E9F0F4"/>
    </g>
    <g transform="rotate(2.70 746.0 642.0)">
      <rect x="682.0" y="540.0" width="128" height="102" rx="7"
            fill="#FFFFFF" filter="url(#printShadow)"/>
      
      <rect x="692.0" y="550.0" width="108" height="82" fill="#FFC15E"/>
      <rect x="692.0" y="550.0" width="108" height="82" fill="url(#photoShade)"/>
      <circle cx="724.4" cy="574.6" r="11.48" fill="#FFFFFF" opacity="0.92"/>
      <path d="M 692.0 632.0 L 728.72 587.72 L 752.48 610.68 L 771.92 592.64 L 800.0 632.0 Z" fill="#0E3554" opacity="0.35"/>
    
    </g>
  </g>
</svg>
