<svg width="1024" height="1024" viewBox="0 0 1024 1024" xmlns="http://www.w3.org/2000/svg">
  <defs>
    <linearGradient id="dusk" x1="0" y1="0" x2="0.35" y2="1">
      <stop offset="0" stop-color="#1B2E6B"/>
      <stop offset="0.55" stop-color="#14508A"/>
      <stop offset="1" stop-color="#0E8A8F"/>
    </linearGradient>
    <linearGradient id="photoShade" x1="0" y1="0" x2="0" y2="1">
      <stop offset="0" stop-color="#FFFFFF" stop-opacity="0.16"/>
      <stop offset="1" stop-color="#000000" stop-opacity="0.10"/>
    </linearGradient>
    <radialGradient id="glow" cx="0.62" cy="0.18" r="0.9">
      <stop offset="0" stop-color="#FFFFFF" stop-opacity="0.14"/>
      <stop offset="0.5" stop-color="#FFFFFF" stop-opacity="0.0"/>
    </radialGradient>
    <filter id="iconShadow" x="-20%" y="-20%" width="140%" height="140%">
      <feDropShadow dx="0" dy="12" stdDeviation="18" flood-color="#000000" flood-opacity="0.30"/>
    </filter>
    <filter id="printShadow" x="-30%" y="-30%" width="160%" height="160%">
      <feDropShadow dx="0" dy="5" stdDeviation="6" flood-color="#07203A" flood-opacity="0.35"/>
    </filter>
    <clipPath id="squircle">
      <rect x="100.0" y="100.0" width="824" height="824" rx="186"/>
    </clipPath>
  </defs>

  <rect x="100.0" y="100.0" width="824" height="824" rx="186"
        fill="url(#dusk)" filter="url(#iconShadow)"/>
  <g clip-path="url(#squircle)">
    <rect x="100.0" y="100.0" width="824" height="824" fill="url(#glow)"/>
    <circle cx="164.0" cy="164.0" r="2.6" fill="#FFFFFF" opacity="0.07"/><circle cx="228.0" cy="164.0" r="2.6" fill="#FFFFFF" opacity="0.07"/><circle cx="292.0" cy="164.0" r="2.6" fill="#FFFFFF" opacity="0.07"/><circle cx="356.0" cy="164.0" r="2.6" fill="#FFFFFF" opacity="0.07"/><circle cx="420.0" cy="164.0" r="2.6" fill="#FFFFFF" opacity="0.07"/><circle cx="484.0" cy="164.0" r="2.6" fill="#FFFFFF" opacity="0.07"/><circle cx="548.0" cy="164.0" r="2.6" fill="#FFFFFF" opacity="0.07"/><circle cx="612.0" cy="164.0" r="2.6" fill="#FFFFFF" opacity="0.07"/><circle cx="676.0" cy="164.0" r="2.6" fill="#FFFFFF" opacity="0.07"/><circle cx="740.0" cy="164.0" r="2.6" fill="#FFFFFF" opacity="0.07"/><circle cx="804.0" cy="164.0" r="2.6" fill="#FFFFFF" opacity="0.07"/><circle cx="868.0" cy="164.0" r="2.6" fill="#FFFFFF" opacity="0.07"/><circle cx="164.0" cy="228.0" r="2.6" fill="#FFFFFF" opacity="0.07"/><circle cx="228.0" cy="228.0" r="2.6" fill="#FFFFFF" opacity="0.07"/><circle cx="292.0" cy="228.0" r="2.6" fill="#FFFFFF" opacity="0.07"/><circle cx="356.0" cy="228.0" r="2.6" fill="#FFFFFF" opacity="0.07"/><circle cx="420.0" cy="228.0" r="2.6" fill="#FFFFFF" opacity="0.07"/><circle cx="484.0" cy="228.0" r="2.6" fill="#FFFFFF" opacity="0.07"/><circle cx="548.0" cy="228.0" r="2.6" fill="#FFFFFF" opacity="0.07"/><circle cx="612.0" cy="228.0" r="2.6" fill="#FFFFFF" opacity="0.07"/><circle cx="676.0" cy="228.0" r="2.6" fill="#FFFFFF" opacity="0.07"/><circle cx="740.0" cy="228.0" r="2.6" fill="#FFFFFF" opacity="0.07"/><circle cx="804.0" cy="228.0" r="2.6" fill="#FFFFFF" opacity="0.07"/><circle cx="868.0" cy="228.0" r="2.6" fill="#FFFFFF" opacity="0.07"/><circle cx="164.0" cy="292.0" r="2.6" fill="#FFFFFF" opacity="0.07"/><circle cx="228.0" cy="292.0" r="2.6" fill="#FFFFFF" opacity="0.07"/><circle cx="292.0" cy="292.0" r="2.6" fill="#FFFFFF" opacity="0.07"/><circle cx="356.0" cy="292.0" r="2.6" fill="#FFFFFF" opacity="0.07"/><circle cx="420.0" cy="292.0" r="2.6" fill="#FFFFFF" opacity="0.07"/><circle cx="484.0" cy="292.0" r="2.6" fill="#FFFFFF" opacity="0.07"/><circle cx="548.0" cy="292.0" r="2.6" fill="#FFFFFF" opacity="0.07"/><circle cx="612.0" cy="292.0" r="2.6" fill="#FFFFFF" opacity="0.07"/><circle cx="676.0" cy="292.0" r="2.6" fill="#FFFFFF" opacity="0.07"/><circle cx="740.0" cy="292.0" r="2.6" fill="#FFFFFF" opacity="0.07"/><circle cx="804.0" cy="292.0" r="2.6" fill="#FFFFFF" opacity="0.07"/><circle cx="868.0" cy="292.0" r="2.6" fill="#FFFFFF" opacity="0.07"/><circle cx="164.0" cy="356.0" r="2.6" fill="#FFFFFF" opacity="0.07"/><circle cx="228.0" cy="356.0" r="2.6" fill="#FFFFFF" opacity="0.07"/><circle cx="292.0" cy="356.0" r="2.6" fill="#FFFFFF" opacity="0.07"/><circle cx="356.0" cy="356.0" r="2.6" fill="#FFFFFF" opacity="0.07"/><circle cx="420.0" cy="356.0" r="2.6" fill="#FFFFFF" opacity="0.07"/><circle cx="484.0" cy="356.0" r="2.6" fill="#FFFFFF" opacity="0.07"/><circle cx="548.0" cy="356.0" r="2.6" fill="#FFFFFF" opacity="0.07"/><circle cx="612.0" cy="356.0" r="2.6" fill="#FFFFFF" opacity="0.07"/><circle cx="676.0" cy="356.0" r="2.6" fill="#FFFFFF" opacity="0.07"/><circle cx="740.0" cy="356.0" r="2.6" fill="#FFFFFF" opacity="0.07"/><circle cx="804.0" cy="356.0" r="2.6" fill="#FFFFFF" opacity="0.07"/><circle cx="868.0" cy="356.0" r="2.6" fill="#FFFFFF" opacity="0.07"/><circle cx="164.0" cy="420.0" r="2.6" fill="#FFFFFF" opacity="0.07"/><circle cx="228.0" cy="420.0" r="2.6" fill="#FFFFFF" opacity="0.07"/><circle cx="292.0" cy="420.0" r="2.6" fill="#FFFFFF" opacity="0.07"/><circle cx="356.0" cy="420.0" r="2.6" fill="#FFFFFF" opacity="0.07"/><circle cx="420.0" cy="420.0" r="2.6" fill="#FFFFFF" opacity="0.07"/><circle cx="484.0" cy="420.0" r="2.6" fill="#FFFFFF" opacity="0.07"/><circle cx="548.0" cy="420.0" r="2.6" fill="#FFFFFF" opacity="0.07"/><circle cx="612.0" cy="420.0" r="2.6" fill="#FFFFFF" opacity="0.07"/><circle cx="676.0" cy="420.0" r="2.6" fill="#FFFFFF" opacity="0.07"/><circle cx="740.0" cy="420.0" r="2.6" fill="#FFFFFF" opacity="0.07"/><circle cx="804.0" cy="420.0" r="2.6" fill="#FFFFFF" opacity="0.07"/><circle cx="868.0" cy="420.0" r="2.6" fill="#FFFFFF" opacity="0.07"/><circle cx="164.0" cy="484.0" r="2.6" fill="#FFFFFF" opacity="0.07"/><circle cx="228.0" cy="484.0" r="2.6" fill="#FFFFFF" opacity="0.07"/><circle cx="292.0" cy="484.0" r="2.6" fill="#FFFFFF" opacity="0.07"/><circle cx="356.0" cy="484.0" r="2.6" fill="#FFFFFF" opacity="0.07"/><circle cx="420.0" cy="484.0" r="2.6" fill="#FFFFFF" opacity="0.07"/><circle cx="484.0" cy="484.0" r="2.6" fill="#FFFFFF" opacity="0.07"/><circle cx="548.0" cy="484.0" r="2.6" fill="#FFFFFF" opacity="0.07"/><circle cx="612.0" cy="484.0" r="2.6" fill="#FFFFFF" opacity="0.07"/><circle cx="676.0" cy="484.0" r="2.6" fill="#FFFFFF" opacity="0.07"/><circle cx="740.0" cy="484.0" r="2.6" fill="#FFFFFF" opacity="0.07"/><circle cx="804.0" cy="484.0" r="2.6" fill="#FFFFFF" opacity="0.07"/><circle cx="868.0" cy="484.0" r="2.6" fill="#FFFFFF" opacity="0.07"/><circle cx="164.0" cy="548.0" r="2.6" fill="#FFFFFF" opacity="0.07"/><circle cx="228.0" cy="548.0" r="2.6" fill="#FFFFFF" opacity="0.07"/><circle cx="292.0" cy="548.0" r="2.6" fill="#FFFFFF" opacity="0.07"/><circle cx="356.0" cy="548.0" r="2.6" fill="#FFFFFF" opacity="0.07"/><circle cx="420.0" cy="548.0" r="2.6" fill="#FFFFFF" opacity="0.07"/><circle cx="484.0" cy="548.0" r="2.6" fill="#FFFFFF" opacity="0.07"/><circle cx="548.0" cy="548.0" r="2.6" fill="#FFFFFF" opacity="0.07"/><circle cx="612.0" cy="548.0" r="2.6" fill="#FFFFFF" opacity="0.07"/><circle cx="676.0" cy="548.0" r="2.6" fill="#FFFFFF" opacity="0.07"/><circle cx="740.0" cy="548.0" r="2.6" fill="#FFFFFF" opacity="0.07"/><circle cx="804.0" cy="548.0" r="2.6" fill="#FFFFFF" opacity="0.07"/><circle cx="868.0" cy="548.0" r="2.6" fill="#FFFFFF" opacity="0.07"/><circle cx="164.0" cy="612.0" r="2.6" fill="#FFFFFF" opacity="0.07"/><circle cx="228.0" cy="612.0" r="2.6" fill="#FFFFFF" opacity="0.07"/><circle cx="292.0" cy="612.0" r="2.6" fill="#FFFFFF" opacity="0.07"/><circle cx="356.0" cy="612.0" r="2.6" fill="#FFFFFF" opacity="0.07"/><circle cx="420.0" cy="612.0" r="2.6" fill="#FFFFFF" opacity="0.07"/><circle cx="484.0" cy="612.0" r="2.6" fill="#FFFFFF" opacity="0.07"/><circle cx="548.0" cy="612.0" r="2.6" fill="#FFFFFF" opacity="0.07"/><circle cx="612.0" cy="612.0" r="2.6" fill="#FFFFFF" opacity="0.07"/><circle cx="676.0" cy="612.0" r="2.6" fill="#FFFFFF" opacity="0.07"/><circle cx="740.0" cy="612.0" r="2.6" fill="#FFFFFF" opacity="0.07"/><circle cx="804.0" cy="612.0" r="2.6" fill="#FFFFFF" opacity="0.07"/><circle cx="868.0" cy="612.0" r="2.6" fill="#FFFFFF" opacity="0.07"/><circle cx="164.0" cy="676.0" r="2.6" fill="#FFFFFF" opacity="0.07"/><circle cx="228.0" cy="676.0" r="2.6" fill="#FFFFFF" opacity="0.07"/><circle cx="292.0" cy="676.0" r="2.6" fill="#FFFFFF" opacity="0.07"/><circle cx="356.0" cy="676.0" r="2.6" fill="#FFFFFF" opacity="0.07"/><circle cx="420.0" cy="676.0" r="2.6" fill="#FFFFFF" opacity="0.07"/><circle cx="484.0" cy="676.0" r="2.6" fill="#FFFFFF" opacity="0.07"/><circle cx="548.0" cy="676.0" r="2.6" fill="#FFFFFF" opacity="0.07"/><circle cx="612.0" cy="676.0" r="2.6" fill="#FFFFFF" opacity="0.07"/><circle cx="676.0" cy="676.0" r="2.6" fill="#FFFFFF" opacity="0.07"/><circle cx="740.0" cy="676.0" r="2.6" fill="#FFFFFF" opacity="0.07"/><circle cx="804.0" cy="676.0" r="2.6" fill="#FFFFFF" opacity="0.07"/><circle cx="868.0" cy="676.0" r="2.6" fill="#FFFFFF" opacity="0.07"/><circle cx="164.0" cy="740.0" r="2.6" fill="#FFFFFF" opacity="0.07"/><circle cx="228.0" cy="740.0" r="2.6" fill="#FFFFFF" opacity="0.07"/><circle cx="292.0" cy="740.0" r="2.6" fill="#FFFFFF" opacity="0.07"/><circle cx="356.0" cy="740.0" r="2.6" fill="#FFFFFF" opacity="0.07"/><circle cx="420.0" cy="740.0" r="2.6" fill="#FFFFFF" opacity="0.07"/><circle cx="484.0" cy="740.0" r="2.6" fill="#FFFFFF" opacity="0.07"/><circle cx="548.0" cy="740.0" r="2.6" fill="#FFFFFF" opacity="0.07"/><circle cx="612.0" cy="740.0" r="2.6" fill="#FFFFFF" opacity="0.07"/><circle cx="676.0" cy="740.0" r="2.6" fill="#FFFFFF" opacity="0.07"/><circle cx="740.0" cy="740.0" r="2.6" fill="#FFFFFF" opacity="0.07"/><circle cx="804.0" cy="740.0" r="2.6" fill="#FFFFFF" opacity="0.07"/><circle cx="868.0" cy="740.0" r="2.6" fill="#FFFFFF" opacity="0.07"/><circle cx="164.0" cy="804.0" r="2.6" fill="#FFFFFF" opacity="0.07"/><circle cx="228.0" cy="804.0" r="2.6" fill="#FFFFFF" opacity="0.07"/><circle cx="292.0" cy="804.0" r="2.6" fill="#FFFFFF" opacity="0.07"/><circle cx="356.0" cy="804.0" r="2.6" fill="#FFFFFF" opacity="0.07"/><circle cx="420.0" cy="804.0" r="2.6" fill="#FFFFFF" opacity="0.07"/><circle cx="484.0" cy="804.0" r="2.6" fill="#FFFFFF" opacity="0.07"/><circle cx="548.0" cy="804.0" r="2.6" fill="#FFFFFF" opacity="0.07"/><circle cx="612.0" cy="804.0" r="2.6" fill="#FFFFFF" opacity="0.07"/><circle cx="676.0" cy="804.0" r="2.6" fill="#FFFFFF" opacity="0.07"/><circle cx="740.0" cy="804.0" r="2.6" fill="#FFFFFF" opacity="0.07"/><circle cx="804.0" cy="804.0" r="2.6" fill="#FFFFFF" opacity="0.07"/><circle cx="868.0" cy="804.0" r="2.6" fill="#FFFFFF" opacity="0.07"/><circle cx="164.0" cy="868.0" r="2.6" fill="#FFFFFF" opacity="0.07"/><circle cx="228.0" cy="868.0" r="2.6" fill="#FFFFFF" opacity="0.07"/><circle cx="292.0" cy="868.0" r="2.6" fill="#FFFFFF" opacity="0.07"/><circle cx="356.0" cy="868.0" r="2.6" fill="#FFFFFF" opacity="0.07"/><circle cx="420.0" cy="868.0" r="2.6" fill="#FFFFFF" opacity="0.07"/><circle cx="484.0" cy="868.0" r="2.6" fill="#FFFFFF" opacity="0.07"/><circle cx="548.0" cy="868.0" r="2.6" fill="#FFFFFF" opacity="0.07"/><circle cx="612.0" cy="868.0" r="2.6" fill="#FFFFFF" opacity="0.07"/><circle cx="676.0" cy="868.0" r="2.6" fill="#FFFFFF" opacity="0.07"/><circle cx="740.0" cy="868.0" r="2.6" fill="#FFFFFF" opacity="0.07"/><circle cx="804.0" cy="868.0" r="2.6" fill="#FFFFFF" opacity="0.07"/><circle cx="868.0" cy="868.0" r="2.6" fill="#FFFFFF" opacity="0.07"/>
    <line x1="190.0" y1="808.0" x2="834.0" y2="808.0"
          stroke="#FFFFFF" stroke-opacity="0.28" stroke-width="5" stroke-linecap="round"/>
    
    <g transform="rotate(-1.77 278.0 792.0)">
      <rect x="214.0" y="690.0" width="128" height="102" rx="7"
            fill="#FFFFFF" filter="url(#printShadow)"/>
      <rect x="214.0" y="690.0" width="128" height="102" fill="#E9F0F4"/>
    </g>
    <g transform="rotate(-0.57 278.0 762.0)">
      <rect x="214.0" y="660.0" width="128" height="102" rx="7"
            fill="#FFFFFF" filter="url(#printShadow)"/>
      <rect x="214.0" y="660.0" width="128" height="102" fill="#E9F0F4"/>
    </g>
    <g transform="rotate(-1.14 278.0 732.0)">
      <rect x="214.0" y="630.0" width="128" height="102" rx="7"
            fill="#FFFFFF" filter="url(#printShadow)"/>
      <rect x="214.0" y="630.0" width="128" height="102" fill="#E9F0F4"/>
    </g>
    <g transform="rotate(1.19 278.0 702.0)">
      <rect x="214.0" y="600.0" width="128" height="102" rx="7"
            fill="#FFFFFF" filter="url(#printShadow)"/>
      <rect x="214.0" y="600.0" width="128" height="102" fill="#E9F0F4"/>
    </g>
    <g transform="rotate(0.84 278.0 672.0)">
      <rect x="214.0" y="570.0" width="128" height="102" rx="7"
            fill="#FFFFFF" filter="url(#printShadow)"/>
      <rect x="214.0" y="570.0" width="128" height="102" fill="#E9F0F4"/>
    </g>
    <g transform="rotate(-0.12 278.0 642.0)">
      <rect x="214.0" y="540.0" width="128" height="102" rx="7"
            fill="#FFFFFF" filter="url(#printShadow)"/>
      <rect x="214.0" y="540.0" width="128" height="102" fill="#E9F0F4"/>
    </g>
    <g transform="rotate(2.45 278.0 612.0)">
      <rect x="214.0" y="510.0" width="128" height="102" rx="7"
            fill="#FFFFFF" filter="url(#printShadow)"/>
      
      <rect x="214.0" y="510.0" width="128" height="102" fill="#7EC8E3"/>
      <rect x="214.0" y="510.0" width="128" height="102" fill="url(#photoShade)"/>
      <circle cx="252.4" cy="540.6" r="14.280000000000001" fill="#FFFFFF" opacity="0.92"/>
      <path d="M 214.0 612.0 L 257.52 556.92 L 285.68 585.48 L 308.72 563.04 L 342.0 612.0 Z" fill="#0E3554" opacity="0.35"/>
    
    </g>
    <g transform="rotate(-0.82 434.0 792.0)">
      <rect x="370.0" y="690.0" width="128" height="102" rx="7"
            fill="#FFFFFF" filter="url(#printShadow)"/>
      <rect x="370.0" y="690.0" width="128" height="102" fill="#E9F0F4"/>
    </g>
    <g transform="rotate(-0.50 434.0 762.0)">
      <rect x="370.0" y="660.0" width="128" height="102" rx="7"
            fill="#FFFFFF" filter="url(#printShadow)"/>
      <rect x="370.0" y="660.0" width="128" height="102" fill="#E9F0F4"/>
    </g>
    <g transform="rotate(-2.09 434.0 732.0)">
      <rect x="370.0" y="630.0" width="128" height="102" rx="7"
            fill="#FFFFFF" filter="url(#printShadow)"/>
      <rect x="370.0" y="630.0" width="128" height="102" fill="#E9F0F4"/>
    </g>
    <g transform="rotate(-0.02 434.0 702.0)">
      <rect x="370.0" y="600.0" width="128" height="102" rx="7"
            fill="#FFFFFF" filter="url(#printShadow)"/>
      
      <rect x="370.0" y="600.0" width="128" height="102" fill="#9FE2BF"/>
      <rect x="370.0" y="600.0" width="128" height="102" fill="url(#photoShade)"/>
      <circle cx="408.4" cy="630.6" r="14.280000000000001" fill="#FFFFFF" opacity="0.92"/>
      <path d="M 370.0 702.0 L 413.52 646.92 L 441.68 675.48 L 464.72 653.04 L 498.0 702.0 Z" fill="#0E3554" opacity="0.35"/>
    
    </g>
    <g transform="rotate(1.72 590.0 792.0)">
      <rect x="526.0" y="690.0" width="128" height="102" rx="7"
            fill="#FFFFFF" filter="url(#printShadow)"/>
      <rect x="526.0" y="690.0" width="128" height="102" fill="#E9F0F4"/>
    </g>
    <g transform="rotate(-0.91 590.0 762.0)">
      <rect x="526.0" y="660.0" width="128" height="102" rx="7"
            fill="#FFFFFF" filter="url(#printShadow)"/>
      <rect x="526.0" y="660.0" width="128" height="102" fill="#E9F0F4"/>
    </g>
    <g transform="rotate(2.14 590.0 732.0)">
      <rect x="526.0" y="630.0" width="128" height="102" rx="7"
            fill="#FFFFFF" filter="url(#printShadow)"/>
      <rect x="526.0" y="630.0" width="128" height="102" fill="#E9F0F4"/>
    </g>
    <g transform="rotate(-0.30 590.0 702.0)">
      <rect x="526.0" y="600.0" width="128" height="102" rx="7"
            fill="#FFFFFF" filter="url(#printShadow)"/>
      <rect x="526.0" y="600.0" width="128" height="102" fill="#E9F0F4"/>
    </g>
    <g transform="rotate(1.54 590.0 672.0)">
      <rect x="526.0" y="570.0" width="128" height="102" rx="7"
            fill="#FFFFFF" filter="url(#printShadow)"/>
      <rect x="526.0" y="570.0" width="128" height="102" fill="#E9F0F4"/>
    </g>
    <g transform="rotate(0.46 590.0 642.0)">
      <rect x="526.0" y="540.0" width="128" height="102" rx="7"
            fill="#FFFFFF" filter="url(#printShadow)"/>
      <rect x="526.0" y="540.0" width="128" height="102" fill="#E9F0F4"/>
    </g>
    <g transform="rotate(2.37 590.0 612.0)">
      <rect x="526.0" y="510.0" width="128" height="102" rx="7"
            fill="#FFFFFF" filter="url(#printShadow)"/>
      <rect x="526.0" y="510.0" width="128" height="102" fill="#E9F0F4"/>
    </g>
    <g transform="rotate(-0.53 590.0 582.0)">
      <rect x="526.0" y="480.0" width="128" height="102" rx="7"
            fill="#FFFFFF" filter="url(#printShadow)"/>
      <rect x="526.0" y="480.0" width="128" height="102" fill="#E9F0F4"/>
    </g>
    <g transform="rotate(-0.82 590.0 552.0)">
      <rect x="526.0" y="450.0" width="128" height="102" rx="7"
            fill="#FFFFFF" filter="url(#printShadow)"/>
      <rect x="526.0" y="450.0" width="128" height="102" fill="#E9F0F4"/>
    </g>
    <g transform="rotate(2.21 590.0 522.0)">
      <rect x="526.0" y="420.0" width="128" height="102" rx="7"
            fill="#FFFFFF" filter="url(#printShadow)"/>
      <rect x="526.0" y="420.0" width="128" height="102" fill="#E9F0F4"/>
    </g>
    <g transform="rotate(-0.61 590.0 492.0)">
      <rect x="526.0" y="390.0" width="128" height="102" rx="7"
            fill="#FFFFFF" filter="url(#printShadow)"/>
      
      <rect x="526.0" y="390.0" width="128" height="102" fill="#FF7F6B"/>
      <rect x="526.0" y="390.0" width="128" height="102" fill="url(#photoShade)"/>
      <circle cx="564.4" cy="420.6" r="14.280000000000001" fill="#FFFFFF" opacity="0.92"/>
      <path d="M 526.0 492.0 L 569.52 436.92 L 597.6800000000001 465.48 L 620.72 443.04 L 654.0 492.0 Z" fill="#0E3554" opacity="0.35"/>
    
    </g>
    <g transform="rotate(-0.06 746.0 792.0)">
      <rect x="682.0" y="690.0" width="128" height="102" rx="7"
            fill="#FFFFFF" filter="url(#printShadow)"/>
      <rect x="682.0" y="690.0" width="128" height="102" fill="#E9F0F4"/>
    </g>
    <g transform="rotate(0.25 746.0 762.0)">
      <rect x="682.0" y="660.0" width="128" height="102" rx="7"
            fill="#FFFFFF" filter="url(#printShadow)"/>
      <rect x="682.0" y="660.0" width="128" height="102" fill="#E9F0F4"/>
    </g>
    <g transform="rotate(0.60 746.0 732.0)">
      <rect x="682.0" y="630.0" width="128" height="102" rx="7"
            fill="#FFFFFF" filter="url(#printShadow)"/>
      <rect x="682.0" y="630.0" width="128" height="102" fill="#E9F0F4"/>
    </g>
    <g transform="rotate(1.85 746.0 702.0)">
      <rect x="682.0" y="600.0" width="128" height="102" rx="7"
            fill="#FFFFFF" filter="url(#printShadow)"/>
      <rect x="682.0" y="600.0" width="128" height="102" fill="#E9F0F4"/>
    </g>
    <g transform="rotate(-1.78 746.0 672.0)">
      <rect x="682.0" y="570.0" width="128" height="102" rx="7"
            fill="#FFFFFF" filter="url(#printShadow)"/>
      <rect x="682.0" y="570.0" width="128" height="102" fill="#E9F0F4"/>
    </g>
    <g transform="rotate(2.70 746.0 642.0)">
      <rect x="682.0" y="540.0" width="128" height="102" rx="7"
            fill="#FFFFFF" filter="url(#printShadow)"/>
      
      <rect x="682.0" y="540.0" width="128" height="102" fill="#FFC15E"/>
      <rect x="682.0" y="540.0" width="128" height="102" fill="url(#photoShade)"/>
      <circle cx="720.4" cy="570.6" r="14.280000000000001" fill="#FFFFFF" opacity="0.92"/>
      <path d="M 682.0 642.0 L 725.52 586.92 L 753.6800000000001 615.48 L 776.72 593.04 L 810.0 642.0 Z" fill="#0E3554" opacity="0.35"/>
    
    </g>
  </g>
</svg>
